<svg id="Layer_1" data-name="Layer 1" xmlns="http://www.w3.org/2000/svg" viewBox="0 0 29 28.63"><defs><style>.cls-1{fill:#d6a5ac;}</style></defs><title>alarm</title><path class="cls-1" d="M29.49,25.75l2.14,1.82-2.19,2.16-1.83-2.12a13.13,13.13,0,0,1-8.08,2.85,13,13,0,0,1-8.06-2.83L9.66,29.89,7.53,27.55l2-1.78c-3-4.11-3.75-8.42-1.87-13s5.45-7.1,10.37-7.91V2h2.85V4.87c4.86,0.79,8.46,3.27,10.38,7.82S32.49,21.56,29.49,25.75Zm0-8.14a10,10,0,1,0-9.91,10A10,10,0,0,0,29.49,17.61Z" transform="translate(-5.08 -1.83)"/><path class="cls-1" d="M29.26,1.84l4.82,4.81-2,1.64L27.31,3.48Z" transform="translate(-5.08 -1.83)"/><path class="cls-1" d="M6.88,8.51L5.08,6.71,10,1.83l1.78,1.75Z" transform="translate(-5.08 -1.83)"/><path class="cls-1" d="M22.24,22.49c-1.19-1.19-2.56-2.54-3.9-3.91a1,1,0,0,1-.23-0.63c0-2.42,0-4.85,0-7.34h2.85a23.69,23.69,0,0,1,0,3.39,5.27,5.27,0,0,0,2.3,5.48,12.21,12.21,0,0,1,1.14,1Z" transform="translate(-5.08 -1.83)"/></svg>