<?xml version="1.0" encoding="utf-8"?>
<!-- Generator: Adobe Illustrator 19.2.1, SVG Export Plug-In . SVG Version: 6.00 Build 0)  -->
<svg version="1.0" id="Layer_1" xmlns="http://www.w3.org/2000/svg" xmlns:xlink="http://www.w3.org/1999/xlink" x="0px" y="0px"
	 viewBox="0 0 875 788.2" style="enable-background:new 0 0 875 788.2;" xml:space="preserve">
<style type="text/css">
	.st0{fill:#666666;}
</style>
<path class="st0" d="M464.8-2687.4c14.6,4.2,29.7,7.2,43.8,12.7c86.8,33.9,137.3,100.4,156.8,188.5c25.4,115-1.7,216.4-92.2,296.9
	c-4.4,3.9-7.8,11.3-8,17.1c-0.6,17.5-5.5,39.3,2.8,51.4c7.6,11,30.3,11.8,46.6,16.4c53.1,14.8,106.2,29.3,159.4,43.7
	c52.5,14.2,85.7,46.9,98,100.3c0.6,2.7,2,5.2,3,7.8c0,46.6,0,93.3,0,140c-291.7,0-583.3,0-875,0c0-47.9,0-95.7,0-143.4
	c2.7-7.9,5-16,8.1-23.8c15.9-40,43.9-67.2,85.8-78.8c66.8-18.5,133.6-37,200.6-54.9c11.9-3.2,15.1-8.4,16.2-20.8
	c2.6-31.7-6.5-54.3-30.3-78.4c-115.2-116.7-101.1-328,25.5-427.6c28.7-22.6,60.7-37.7,96.8-44c2.6-0.5,5-2.1,7.5-3.1
	C428.4-2687.4,446.6-2687.4,464.8-2687.4z M346.1-2161.8c0,20.6-0.9,38.6,0.3,56.5c0.8,12.3-4,16.5-15.2,19.5
	c-75.2,20.2-150.3,41.1-225.4,61.6c-35.7,9.8-60.9,32.5-65.8,68.5c-4.7,34.4-1,69.9-1,105.3c266.1,0,531.8,0,799,0
	c0-28.9,0.3-56.7-0.1-84.5c-0.6-44.9-26.2-77.6-69.8-89.6c-74.6-20.5-149-41.3-223.8-61.2c-12.2-3.3-16.4-8.5-15.6-20.9
	c1.1-17.3,0.3-34.7,0.3-54.5C467-2133.8,407.4-2133.9,346.1-2161.8z M635.4-2453c-59.2,14-85.7,5-160.6-53.5
	c-68,68.5-146.8,57.9-228,29.9c-1,2.4-2.2,4.4-2.6,6.5c-13.9,76.2-2.7,147.7,43.5,211c70.5,96.7,191.8,110.1,274.4,30.3
	C625.4-2289.9,644.5-2366.5,635.4-2453z M472.4-2580.7c6.8,11.6,11.3,19.5,15.9,27.3c19.3,33,47.9,54.9,84,65.5
	c13.4,4,28.9,2.5,43.3,1.3c8.4-0.7,12.5-7.4,7.6-16.4c-13.5-24.8-23.9-52.1-41.1-74c-44.3-56.4-103.1-84.2-175.4-70.5
	c-74.9,14.2-119.5,64.8-149.6,133.2c41.2,19.1,82.2,26.4,125.6,19.3C430.5-2502.6,454.7-2536.3,472.4-2580.7z"/>
<g>
	<g>
		<g>
			<g>
				<path class="st0" d="M-12.5-1106.5c7.3-11.7,13.2-24.6,22.2-34.9c15.7-18,37.1-22.5,60.4-22.4c123,0.3,246.1,0.2,369.1,0.2
					c116.6,0,233.2,1.4,349.8-0.7c46.9-0.8,80.9,12.6,98.5,57.9c0,161.7,0,323.4,0,485.2c-7.3,11.7-13.3,24.6-22.2,34.8
					c-15.7,17.9-37.1,22.5-60.5,22.5c-122.4-0.3-244.9-0.2-367.3-0.2c-117.8,0-235.5-1.4-353.2,0.7c-46.6,0.8-79.3-13.7-96.7-57.8
					C-12.5-783-12.5-944.8-12.5-1106.5z M437.7-601.2c120.1,0,240.2,0,360.3,0c40.1,0,51.7-11.3,51.7-50.8c0-141.2,0-282.4,0-423.6
					c0-39.7-11.5-51.2-51.2-51.2c-240.8,0-481.6,0-722.4,0c-39,0-50.8,11.5-50.8,49.9c0,141.8,0,283.6,0,425.3
					c0,38.7,11.7,50.3,50.3,50.3C196.3-601.1,317-601.2,437.7-601.2z"/>
			</g>
		</g>
		<g>
			<path class="st0" d="M437.5-767.5c-4-2.3-7.6-4.1-11-6.2c-104.2-67.4-208.4-134.8-312.6-202.2c-10.9-7-19-15.6-10.7-28.7
				c8.8-13.9,20.3-9.9,31.8-2.4c96.3,62.4,192.7,124.5,288.8,187.3c10.5,6.8,17.4,6.5,27.7-0.2c94.1-61.5,188.5-122.4,282.9-183.4
				c4.9-3.2,10.2-8.5,15.1-8.3c7.7,0.3,17.9,2.5,21.9,7.8c3.2,4.3-0.2,14.6-2.4,21.7c-1,3.1-6.1,5.1-9.5,7.3
				c-103.2,66.8-206.4,133.6-309.6,200.3C445.8-772.1,441.7-769.9,437.5-767.5z"/>
		</g>
		<g>
			<path class="st0" d="M290-807.1c-5.2,6.4-8.4,13-13.6,16.5c-54.3,36.7-109,73-163.6,109.2c-10.1,6.7-20.7,7.3-27.8-3.4
				c-7.5-11.3-3.3-20.9,7.8-28.2c54.1-36,108-72.3,162.5-107.7c5.8-3.8,15.7-4.1,22.7-2.2C282.5-821.8,285.2-813.8,290-807.1z"/>
		</g>
		<g>
			<path class="st0" d="M793.1-700.2c0.2,17.8-11.2,26.3-24,22.3c-4.3-1.3-8.3-4.3-12.1-6.8c-51.2-34.1-102.2-68.3-153.5-102.2
				c-11.9-7.9-21.8-17-12.1-31.2c9.9-14.5,22.2-7.4,33.6,0.2c51.1,34.2,102.4,68.1,153.3,102.6C784.9-710.7,789.8-703.6,793.1-700.2
				z"/>
		</g>
	</g>
</g>
<g>
	<g>
		<g>
			<g>
				<g>
					<path class="st0" d="M0,145.9c8.6-13.9,15.7-29.1,26.2-41.3C44.7,83.3,70.1,78,97.7,78.1c145.5,0.4,291.1,0.2,436.6,0.2
						c137.9,0,86.3,1.7,224.2-0.8c55.4-1,95.7,14.9,116.5,68.4c0,191.3,0,382.6,0,573.9c-8.6,13.8-15.7,29.1-26.3,41.2
						c-18.6,21.2-43.9,26.6-71.5,26.6c-144.8-0.4-100.1-0.2-244.9-0.2c-139.3,0-278.6-1.7-417.8,0.8c-55.1,1-93.8-16.2-114.4-68.4
						C0,528.4,0,337.2,0,145.9z M532.5,743.6c142.1,0,94.6,0,236.6,0c47.5,0,61.1-13.4,61.1-60.1c0-167,0-334,0-501
						c0-47-13.6-60.5-60.6-60.5c-284.8,0-380.1,0-664.9,0c-46.1,0-60,13.7-60,59c0,167.7,0,335.4,0,503.1
						c0,45.7,13.8,59.5,59.5,59.5C247,743.6,389.7,743.6,532.5,743.6z"/>
				</g>
			</g>
		</g>
	</g>
	<g>
		<g>
			<rect x="262.1" y="292.6" class="st0" width="84.3" height="84.3"/>
			<rect x="528.6" y="292.6" class="st0" width="84.3" height="84.3"/>
		</g>
		<g>
			<rect x="262.1" y="488.7" class="st0" width="84.3" height="84.3"/>
			<rect x="528.6" y="488.7" class="st0" width="84.3" height="84.3"/>
		</g>
	</g>
	<g>
		<rect x="167.3" class="st0" width="84.3" height="160.3"/>
		<rect x="395.4" class="st0" width="84.3" height="160.3"/>
		<rect x="623.4" class="st0" width="84.3" height="160.3"/>
	</g>
</g>
<g>
	<g>
		<path class="st0" d="M386.2,1308.6c34.2,0,68.4,0,102.5,0c31.6,14.2,43.1,39.5,40.2,72.9c-0.6,6.8-0.1,13.6-0.1,20.5
			c0,28,0.1,27.8,25.5,37.8c11.1,4.4,21.5,10.5,32.7,14.2c4.5,1.5,12.1,0.5,15.5-2.5c13.6-12.1,25.9-25.6,38.9-38.2
			c24.3-23.5,56.4-24,80.7-0.9c16.9,16.1,33.4,32.6,49.5,49.4c23.1,24.2,22.9,54.9-0.3,79.1c-13,13.5-26.7,26.3-39.5,40
			c-2.7,2.9-5,9.3-3.7,12.5c8,20.4,17.2,40.4,26.2,61.1c16.1,0,32.1,1,47.9-0.2c33.5-2.5,58.6,8.9,72.8,40.5c0,34.2,0,68.4,0,102.5
			c-14.2,31.6-39.5,43.2-72.8,40.2c-6.2-0.5-12.5-0.1-18.8-0.1c-29.8,0-29.7,0-40.3,26.9c-4,10-7.9,20.2-13.2,29.5
			c-4.5,7.8-3.8,12.8,2.9,18.9c13.7,12.7,27,26.1,39.8,39.8c21.3,22.6,22.1,52.7,1.3,75.3c-17.3,18.8-35.5,36.9-54.2,54.3
			c-21.9,20.3-53.6,19.5-75.7-0.9c-9.2-8.5-17.8-17.6-26.6-26.4c-20.6-20.6-19.6-16.7-47.5-9.7c-36.7,9.2-46.1,29.8-41.2,64
			c4.8,33.7-7.7,59.8-39.9,74.5c-34.2,0-68.4,0-102.5,0c-31.6-14.2-43.3-39.4-40.3-72.8c0.6-6.2,0.1-12.5,0.1-18.8
			c0-29.8,0-29.7-26.9-40.3c-10-4-20.1-8-29.5-13.3c-7.7-4.4-12.7-3.9-18.9,2.8c-12.8,13.7-26.1,27-39.8,39.8
			c-21.9,20.5-53.7,21.3-75.7,1.1c-18.8-17.3-36.9-35.5-54.3-54.2c-20.9-22.5-20-52.7,1.1-75.3c8.5-9.1,17.6-17.8,26.5-26.6
			c20.7-20.7,16.7-19.7,9.9-47.5c-9.4-37.9-31-46.3-65.7-41.4c-33.1,4.7-58.6-8.2-72.8-39.8c0-34.2,0-68.4,0-102.5
			c14.1-31.8,39.3-43,72.8-40.5c16.3,1.2,32.8,0.2,47.9,0.2c9.1-21,17.9-40,25.4-59.6c1.5-3.8-0.2-10.9-3.1-14
			c-13-14.2-27.4-27.3-40.6-41.4c-21.7-23-22-53.5-0.3-76.6c16.7-17.8,34.1-35.1,51.9-51.8c23.1-21.7,55-21,78.2,0.9
			c9.1,8.6,17.7,17.6,26.6,26.5c19.5,19.5,18.6,15.6,44.7,9.2c38.2-9.2,48-30.7,42.8-66.4C341.6,1348.2,354.5,1322.8,386.2,1308.6z
			 M779.3,1800.7c12,0,23.9-0.2,35.9,0c15.5,0.3,23.3-6.7,23.1-22.5c-0.2-21.1,0.2-42.1-0.1-63.2c-0.2-18.2-5.5-23.4-23.5-23.6
			c-23.3-0.2-46.7-0.5-70,0.1c-14.4,0.4-21-6.2-25.8-19.4c-9-25-19.3-49.7-30.7-73.7c-5.8-12.3-5.3-21.1,4.4-30.4
			c17.2-16.6,33.8-33.9,50.9-50.6c11.1-10.9,11.5-21.3,0.3-32.3c-15-14.8-29.7-29.9-44.8-44.6c-12.8-12.4-20.5-12.4-33.4,0.3
			c-17.1,16.7-34,33.7-50.7,50.7c-8.8,9-17.4,9.6-29.1,4.1c-24.6-11.5-49.7-22.1-75.3-31.4c-12.6-4.6-18.7-11.1-18.4-24.6
			c0.5-23.9,0-47.8,0.2-71.7c0.1-14.5-6.2-22.6-21.3-22.6c-22.2,0-44.4,0.1-66.6,0c-15,0-21.7,7.6-21.5,22.3
			c0.2,23.3-0.5,46.7,0.2,70c0.5,15-5.7,22.2-19.8,27.2c-24.6,8.6-48.9,18.4-72.2,29.9c-13.8,6.8-23,5.4-33.1-5.3
			c-16-16.9-33-33.1-49.4-49.7c-10.3-10.4-20.5-11.3-31.1-0.7c-15.7,15.7-31.4,31.4-47.1,47.1c-10.6,10.7-9.4,20.9,1,31.1
			c17,16.8,33.7,34,50.9,50.6c9.6,9.2,10.7,18,4.8,30.4c-11.4,24-21.9,48.6-30.7,73.7c-5,14.2-12.4,20.2-27.3,19.7
			c-23.3-0.7-46.7-0.1-70-0.2c-14.8-0.1-22.2,6.7-22.2,21.6c0.1,21.6,0.2,43.3-0.1,64.9c-0.2,15.7,7.1,23,22.8,22.9
			c23.9-0.2,47.8,0.3,71.7-0.2c13.6-0.3,20,5.9,24.5,18.5c9.1,25,19.1,49.8,30.6,73.8c6.3,12.9,5.6,22-4.6,31.8
			c-17.3,16.6-33.8,33.8-50.9,50.6c-10.5,10.4-10.8,20.6-0.2,31.1c15.3,15.3,30.7,30.5,45.9,45.9c11,11.2,21.5,10.7,32.4-0.3
			c16.7-17.1,34-33.7,50.6-50.9c9.4-9.7,18.2-10.1,30.4-4.3c24,11.4,48.7,21.7,73.7,30.7c13.2,4.8,19.7,11.5,19.3,25.8
			c-0.6,23.3-0.3,46.7-0.1,70c0.2,17.8,5.6,23.2,23.7,23.4c21.1,0.3,42.1-0.1,63.2,0.1c15.8,0.1,22.7-7.7,22.5-23.2
			c-0.3-23.3,0.4-46.7-0.2-70c-0.4-14.2,5.5-21.2,18.9-26c25.1-9,49.8-19.1,73.8-30.6c13.1-6.3,22.1-5,31.7,5.1
			c15.7,16.5,32,32.4,48.3,48.4c13.9,13.7,21.2,13.9,34.6,0.8c14.7-14.3,29.2-28.8,43.5-43.5c12.7-13.1,12.8-20.4,0.2-33.3
			c-16.3-16.7-32.7-33.4-49.6-49.5c-10.2-9.7-11.3-18.8-5-31.8c11.4-23.4,21.5-47.6,30-72.2c5.1-15,12.8-21.6,28.5-20.4
			C757.6,1801.4,768.5,1800.7,779.3,1800.7z"/>
		<path class="st0" d="M255.5,1746.4c-0.1-101.3,80.7-182.3,182-182.3c101.2,0,182.1,81.2,181.9,182.5
			c-0.2,100.5-80.7,181.1-181.2,181.4C336.9,1928.4,255.7,1847.6,255.5,1746.4z M437.1,1600c-79.9,0.3-145.6,66.1-145.7,145.9
			c-0.1,79.7,65.6,145.6,145.5,146.1c80.2,0.5,147.2-66.7,146.5-146.8C582.8,1665.2,516.7,1599.7,437.1,1600z"/>
	</g>
</g>
</svg>
