<?xml version="1.0" encoding="utf-8"?>
<!-- Generator: Adobe Illustrator 19.2.1, SVG Export Plug-In . SVG Version: 6.00 Build 0)  -->
<svg version="1.1" id="Layer_1" xmlns="http://www.w3.org/2000/svg" xmlns:xlink="http://www.w3.org/1999/xlink" x="0px" y="0px"
	 viewBox="0 0 13.8 13.8" style="enable-background:new 0 0 13.8 13.8;" xml:space="preserve">
<style type="text/css">
	.st0{fill:#AAC9D6;}
</style>
<g>
	<path class="st0" d="M2.8,1.4c0-0.5,0-0.9,0-1.4c0.5,0,0.9,0,1.4,0c0,0.4,0,0.9,0,1.3c1.9,0,3.7,0,5.5,0c0-0.4,0-0.9,0-1.3
		c0.5,0,0.9,0,1.4,0c0,0.4,0,0.9,0,1.4c0.5,0,0.9,0,1.3,0c0.9,0,1.5,0.6,1.5,1.5c0,3.2,0,6.3,0,9.5c0,0.9-0.6,1.5-1.5,1.5
		c-3.6,0-7.2,0-10.8,0c-0.9,0-1.5-0.6-1.5-1.5C0,9.2,0,6,0,2.9c0-1,0.6-1.5,1.5-1.5C1.9,1.4,2.3,1.4,2.8,1.4z M1.1,5.4
		c0,2.4,0,4.9,0,7.3c3.9,0,7.8,0,11.6,0c0-2.4,0-4.8,0-7.3C8.9,5.4,5,5.4,1.1,5.4z M1.1,4.3c3.9,0,7.8,0,11.6,0c0-0.6,0-1.2,0-1.8
		c-3.9,0-7.8,0-11.6,0C1.1,3.1,1.1,3.7,1.1,4.3z"/>
	<path class="st0" d="M8.3,6.9c0,0.5,0,0.9,0,1.3c-0.4,0-0.9,0-1.3,0c0-0.4,0-0.9,0-1.3C7.4,6.9,7.8,6.9,8.3,6.9z"/>
	<path class="st0" d="M9.7,8.3c0-0.5,0-0.9,0-1.3c0.4,0,0.9,0,1.3,0c0,0.4,0,0.9,0,1.3C10.6,8.3,10.2,8.3,9.7,8.3z"/>
	<path class="st0" d="M4.2,11c0-0.5,0-0.9,0-1.3c0.4,0,0.9,0,1.3,0c0,0.4,0,0.9,0,1.3C5.1,11,4.6,11,4.2,11z"/>
	<path class="st0" d="M8.3,9.7c0,0.4,0,0.9,0,1.3c-0.4,0-0.9,0-1.3,0c0-0.4,0-0.9,0-1.3C7.4,9.7,7.8,9.7,8.3,9.7z"/>
</g>
</svg>
