<?xml version="1.0" encoding="utf-8"?>
<!-- Generator: Adobe Illustrator 19.2.1, SVG Export Plug-In . SVG Version: 6.00 Build 0)  -->
<svg version="1.1" id="Layer_1" xmlns="http://www.w3.org/2000/svg" xmlns:xlink="http://www.w3.org/1999/xlink" x="0px" y="0px"
	 viewBox="0 0 27.7 27.7" style="enable-background:new 0 0 27.7 27.7;" xml:space="preserve">
<style type="text/css">
	.st0{fill:#8CCAEC;}
</style>
<g>
	<g>
		<path class="st0" d="M11.5,9c2.6,0,4.4,1.3,5.9,3.3c0.5,0.6,0.3,1.4-0.3,1.9c-0.6,0.5-1.4,0.4-1.9-0.2c-0.3-0.4-0.6-0.7-1-1.1
			c-1.6-1.5-3.9-1.5-5.5,0c-1.6,1.6-3.3,3.2-4.9,4.9c-1.5,1.5-1.5,3.8,0,5.4c1.3,1.4,2.8,2.1,4.7,1.4c0.6-0.2,1.1-0.6,1.5-1
			c0.9-0.9,1.8-1.8,2.7-2.7c0.7-0.7,1.5-0.8,2.1-0.2c0.6,0.6,0.5,1.4-0.2,2.1c-0.9,0.9-1.9,1.9-2.8,2.8c-2.8,2.7-6.8,2.6-9.6,0
			c-2.2-2.2-3-4.7-1.9-7.6c0.3-0.8,0.8-1.5,1.4-2.1c1.6-1.7,3.3-3.3,5-5C8.1,9.6,9.7,9,11.5,9z"/>
		<path class="st0" d="M16.2,18.7c-2.6,0-4.4-1.3-5.9-3.2c-0.5-0.6-0.3-1.5,0.3-1.9c0.6-0.5,1.4-0.4,1.9,0.3c0.3,0.4,0.7,0.8,1,1.1
			c1.5,1.4,3.8,1.4,5.3,0c1.7-1.6,3.3-3.3,5-5c1.5-1.5,1.4-3.8,0-5.4c-1.2-1.3-2.6-2.1-4.4-1.5c-0.7,0.2-1.3,0.6-1.8,1.1
			c-1,0.9-1.9,1.8-2.8,2.7c-0.7,0.7-1.5,0.7-2.1,0.1c-0.6-0.6-0.5-1.4,0.2-2.1c0.9-1,1.9-1.9,2.8-2.8c2.8-2.7,6.8-2.6,9.5,0
			c1.5,1.4,2.4,3,2.4,5.1c0,1.8-0.6,3.4-1.8,4.6c-1.7,1.7-3.4,3.4-5.1,5.1C19.5,18.1,18,18.7,16.2,18.7z"/>
	</g>
</g>
</svg>
