<?xml version="1.0" encoding="utf-8"?>
<!-- Generator: Adobe Illustrator 19.2.1, SVG Export Plug-In . SVG Version: 6.00 Build 0)  -->
<svg version="1.1" id="Layer_1" xmlns="http://www.w3.org/2000/svg" xmlns:xlink="http://www.w3.org/1999/xlink" x="0px" y="0px"
	 viewBox="0 0 16 15.9" style="enable-background:new 0 0 16 15.9;" xml:space="preserve">
<style type="text/css">
	.st0{fill:#61B4D0;}
</style>
<path class="st0" d="M8,15.9c-4.1,0-7.4-3-7.9-7.1c-0.5-4.1,2.4-8,6.5-8.7c4.5-0.8,8.6,2.1,9.4,6.6c0.4,2.3-0.2,4.5-1.7,6.3
	c-0.2,0.3-0.2,0.2-0.4,0c-0.3-0.4-0.2-0.6,0.1-0.9c3-4.3,0.5-10.2-4.6-11.1C5.3,0.3,1.5,3.1,1,7c-0.6,4.5,3,8.3,7.5,8.1
	c0.8,0,1.5-0.2,2.3-0.6c0.2-0.1,0.4-0.1,0.5,0.1c0.4,0.5,0.4,0.5-0.2,0.7C10.1,15.7,9,15.9,8,15.9"/>
<path class="st0" d="M8.3,13.1c-0.8,0-1.6-0.1-2.3-0.4c-2.1-0.9-3.4-3.1-3.1-5.3C3.2,5,5,3.2,7.3,2.9c3.3-0.5,6.3,2.5,5.8,5.8
	c0,0.2-0.1,0.4-0.1,0.6l-0.1,0.2c-0.2-0.1-0.5-0.1-0.7-0.2L12.1,9c0.2-0.8,0.2-1.6-0.1-2.4c-0.6-1.8-2.5-3-4.5-2.8
	C5.6,3.9,4,5.5,3.8,7.4c-0.3,2.5,1.6,4.7,4,4.8c0.2,0,0.4,0.1,0.4,0.3C8.2,12.7,8.2,12.9,8.3,13.1"/>
<path class="st0" d="M9.4,13.8l-0.1-0.2C9,12,8.7,10.5,8.4,9c0-0.1,0-0.2,0-0.3l0.3,0c1.4,0.6,2.8,1.2,4.2,1.8l0.2,0.2l-0.2,0.2
	c-0.4,0.1-0.8,0.2-1.2,0.4c-0.4,0.1-0.4,0.1-0.1,0.4c0.4,0.5,0.8,1,1.2,1.5c0.1,0.1,0.2,0.3,0.2,0.5c0,0.3-0.1,0.5-0.4,0.6
	c-0.3,0.1-0.5,0-0.7-0.2c-0.4-0.5-0.8-1-1.3-1.6c-0.2-0.3-0.3-0.3-0.5,0c-0.2,0.4-0.5,0.9-0.7,1.3L9.4,13.8z"/>
</svg>
