<?xml version="1.0" encoding="utf-8"?>
<!-- Generator: Adobe Illustrator 19.2.1, SVG Export Plug-In . SVG Version: 6.00 Build 0)  -->
<svg version="1.1" id="Layer_1" xmlns="http://www.w3.org/2000/svg" xmlns:xlink="http://www.w3.org/1999/xlink" x="0px" y="0px"
	 viewBox="0 0 17 15.1" style="enable-background:new 0 0 17 15.1;" xml:space="preserve">
<style type="text/css">
	.st0{fill:#FFFFFF;}
</style>
<g>
	<path class="st0" d="M0,8.4c0-4.3,3.4-8,7.5-8.4c4.4-0.4,8.6,2.5,9.3,7c0.5,2.9-0.5,5.4-2.5,7.5c-0.6,0.6-1.3,0.6-1.8,0
		c-2.3-2.4-5.9-2.4-8.1,0.1c-0.5,0.6-1.1,0.6-1.7,0C1,13.1,0,10.8,0,8.4z M3.7,3C3.8,3.1,4,3.2,4.1,3.3C4.4,3.7,4.5,4,4.2,4.2
		C3.9,4.5,3.6,4.4,3.3,4.1C3.2,4,3.1,3.9,2.9,3.7c-1,1-1.8,3-1.7,4.2C1.7,8,2.4,7.7,2.4,8.5c0,0.8-0.8,0.5-1.3,0.6
		c0.1,1.9,1.1,3.5,2.4,4.8c1.4-1.4,3-2.2,4.9-2.2c2,0,3.6,0.8,4.9,2.2c1.4-1.4,2.2-2.9,2.4-4.9c-0.3,0-0.5,0-0.7,0
		c-0.4,0-0.6-0.2-0.6-0.6c0-0.4,0.2-0.6,0.6-0.6c0.2,0,0.5,0,0.7,0c-0.2-4.1-4.1-6.8-6.7-6.7C9,1.7,9.3,2.4,8.5,2.4
		C7.7,2.5,8,1.7,7.9,1.2C6.7,1.1,4.6,2,3.7,3z"/>
	<path class="st0" d="M10.6,7.2c0,0.7,0.2,1.3,0.1,1.8c-0.2,1.3-1.5,2-2.8,1.7C6.6,10.3,5.9,9,6.3,7.8c0.4-1.2,1.8-1.9,3-1.4
		c0.3,0.1,0.4,0,0.6-0.1c0.7-0.7,1.4-1.4,2-2c0.4-0.4,0.7-0.4,0.9-0.1c0.3,0.3,0.2,0.6-0.1,0.9C12,5.8,11.2,6.6,10.6,7.2z M8.5,7.4
		c-0.6,0-1.1,0.5-1.1,1.1c0,0.6,0.5,1.1,1.1,1.1c0.6,0,1.1-0.5,1.1-1.1C9.6,7.8,9.1,7.3,8.5,7.4z"/>
</g>
</svg>
