<?xml version="1.0" encoding="utf-8"?>
<!-- Generator: Adobe Illustrator 19.2.1, SVG Export Plug-In . SVG Version: 6.00 Build 0)  -->
<svg version="1.1" id="Layer_1" xmlns="http://www.w3.org/2000/svg" xmlns:xlink="http://www.w3.org/1999/xlink" x="0px" y="0px"
	 viewBox="0 0 411 411" style="enable-background:new 0 0 411 411;" xml:space="preserve">
<style type="text/css">
	.st0{fill:#666666;}
</style>
<g>
	<g>
		<path class="st0" d="M181.4,0c16.1,0,32.1,0,48.2,0c14.9,6.7,20.2,18.6,18.9,34.2c-0.3,3.2,0,6.4,0,9.6c0,13.1,0,13,12,17.8
			c5.2,2.1,10.1,4.9,15.4,6.7c2.1,0.7,5.7,0.2,7.3-1.2c6.4-5.7,12.1-12,18.3-18c11.4-11.1,26.5-11.3,37.9-0.4
			c7.9,7.6,15.7,15.3,23.2,23.2c10.9,11.4,10.8,25.8-0.2,37.2c-6.1,6.4-12.6,12.4-18.6,18.8c-1.3,1.4-2.3,4.3-1.7,5.9
			c3.8,9.6,8.1,19,12.3,28.7c7.6,0,15.1,0.5,22.5-0.1c15.7-1.2,27.5,4.2,34.2,19c0,16.1,0,32.1,0,48.2
			c-6.7,14.8-18.5,20.3-34.2,18.9c-2.9-0.3-5.9,0-8.8,0c-14,0-13.9,0-18.9,12.6c-1.9,4.7-3.7,9.5-6.2,13.8c-2.1,3.7-1.8,6,1.3,8.9
			c6.5,6,12.7,12.3,18.7,18.7c10,10.6,10.4,24.8,0.6,35.4c-8.1,8.8-16.7,17.3-25.5,25.5c-10.3,9.5-25.2,9.1-35.5-0.4
			c-4.3-4-8.4-8.3-12.5-12.4c-9.7-9.7-9.2-7.9-22.3-4.6c-17.2,4.3-21.6,14-19.3,30.1c2.3,15.8-3.6,28.1-18.7,35
			c-16.1,0-32.1,0-48.2,0c-14.8-6.7-20.3-18.5-18.9-34.2c0.3-2.9,0-5.9,0-8.8c0-14,0-13.9-12.6-18.9c-4.7-1.9-9.5-3.7-13.8-6.2
			c-3.6-2.1-6-1.8-8.9,1.3c-6,6.5-12.2,12.7-18.7,18.7c-10.3,9.6-25.2,10-35.6,0.5c-8.8-8.1-17.3-16.7-25.5-25.5
			c-9.8-10.6-9.4-24.8,0.5-35.4c4-4.3,8.3-8.3,12.4-12.5c9.7-9.7,7.9-9.2,4.6-22.3c-4.4-17.8-14.6-21.7-30.8-19.4
			c-15.6,2.2-27.5-3.8-34.2-18.7c0-16.1,0-32.1,0-48.2c6.6-14.9,18.4-20.2,34.2-19c7.7,0.6,15.4,0.1,22.5,0.1
			c4.3-9.9,8.4-18.8,12-28c0.7-1.8-0.1-5.1-1.4-6.6c-6.1-6.7-12.9-12.8-19.1-19.4c-10.2-10.8-10.3-25.1-0.1-36
			c7.8-8.4,16-16.5,24.4-24.4c10.8-10.2,25.9-9.9,36.7,0.4c4.3,4,8.3,8.3,12.5,12.4c9.2,9.2,8.7,7.3,21,4.3
			c18-4.3,22.6-14.4,20.1-31.2C160.4,18.6,166.5,6.7,181.4,0z M366,231.2c5.6,0,11.2-0.1,16.8,0c7.3,0.1,10.9-3.1,10.8-10.6
			c-0.1-9.9,0.1-19.8-0.1-29.7c-0.1-8.5-2.6-11-11-11.1c-11-0.1-21.9-0.2-32.9,0.1c-6.8,0.2-9.9-2.9-12.1-9.1
			c-4.2-11.8-9.1-23.3-14.4-34.6c-2.7-5.8-2.5-9.9,2.1-14.3c8.1-7.8,15.9-15.9,23.9-23.8c5.2-5.1,5.4-10,0.1-15.2
			c-7.1-6.9-13.9-14.1-21-21c-6-5.8-9.6-5.8-15.7,0.1c-8,7.9-16,15.8-23.8,23.8c-4.1,4.2-8.2,4.5-13.7,1.9
			c-11.6-5.4-23.4-10.4-35.4-14.8c-5.9-2.2-8.8-5.2-8.7-11.6c0.2-11.2,0-22.5,0.1-33.7c0.1-6.8-2.9-10.6-10-10.6
			c-10.4,0-20.9,0-31.3,0c-7,0-10.2,3.6-10.1,10.5c0.1,11-0.2,21.9,0.1,32.9c0.2,7-2.7,10.4-9.3,12.8c-11.5,4-23,8.6-33.9,14.1
			c-6.5,3.2-10.8,2.5-15.6-2.5c-7.5-8-15.5-15.5-23.2-23.3c-4.8-4.9-9.6-5.3-14.6-0.3C75.9,68.6,68.6,76,61.2,83.4
			c-5,5-4.4,9.8,0.5,14.6c8,7.9,15.8,16,23.9,23.8c4.5,4.3,5,8.4,2.2,14.3c-5.4,11.3-10.3,22.8-14.4,34.6c-2.4,6.7-5.8,9.5-12.8,9.3
			c-11-0.3-21.9,0-32.9-0.1c-6.9-0.1-10.4,3.1-10.4,10.2c0,10.2,0.1,20.3,0,30.5c-0.1,7.4,3.4,10.8,10.7,10.8
			c11.2-0.1,22.5,0.2,33.7-0.1c6.4-0.1,9.4,2.8,11.5,8.7c4.3,11.8,9,23.4,14.4,34.6c2.9,6.1,2.6,10.4-2.2,14.9
			c-8.1,7.8-15.9,15.9-23.9,23.8c-4.9,4.9-5.1,9.7-0.1,14.6c7.2,7.2,14.4,14.3,21.6,21.6c5.2,5.3,10.1,5,15.2-0.2
			c7.9-8,16-15.8,23.8-23.9c4.4-4.6,8.6-4.7,14.3-2c11.3,5.4,22.9,10.2,34.6,14.4c6.2,2.2,9.2,5.4,9,12.1c-0.3,11-0.2,21.9-0.1,32.9
			c0.1,8.4,2.6,10.9,11.1,11c9.9,0.1,19.8,0,29.7,0c7.4,0.1,10.6-3.6,10.6-10.9c-0.1-11,0.2-21.9-0.1-32.9c-0.2-6.7,2.6-10,8.9-12.2
			c11.8-4.2,23.4-9,34.6-14.4c6.1-3,10.4-2.3,14.9,2.4c7.4,7.7,15,15.2,22.7,22.7c6.5,6.4,9.9,6.5,16.3,0.4
			c6.9-6.7,13.7-13.5,20.4-20.4c6-6.2,6-9.6,0.1-15.7c-7.7-7.8-15.4-15.7-23.3-23.2c-4.8-4.6-5.3-8.8-2.3-14.9
			c5.3-11,10.1-22.3,14.1-33.9c2.4-7,6-10.1,13.4-9.6C355.9,231.5,361,231.2,366,231.2z"/>
		<path class="st0" d="M120,205.6c-0.1-47.6,37.9-85.6,85.5-85.6c47.5,0,85.5,38.1,85.4,85.7c-0.1,47.2-37.9,85.1-85.1,85.2
			C158.3,291.1,120.1,253.2,120,205.6z M205.3,136.9c-37.5,0.1-68.4,31-68.4,68.5c0,37.4,30.8,68.4,68.3,68.6
			c37.7,0.2,69.1-31.3,68.8-69C273.7,167.5,242.7,136.7,205.3,136.9z"/>
	</g>
</g>
</svg>
