<?xml version="1.0" encoding="utf-8"?>
<!-- Generator: Adobe Illustrator 19.2.1, SVG Export Plug-In . SVG Version: 6.00 Build 0)  -->
<svg version="1.1" id="Layer_1" xmlns="http://www.w3.org/2000/svg" xmlns:xlink="http://www.w3.org/1999/xlink" x="0px" y="0px"
	 viewBox="0 0 15 20" style="enable-background:new 0 0 15 20;" xml:space="preserve">
<style type="text/css">
	.st0{fill:#C5E3E9;}
</style>
<path class="st0" d="M7.9,0c0.4,0.1,0.9,0.2,1.3,0.2C12.3,1,14.6,3.5,15,6.7c0.2,1.8-0.2,3.6-1.3,5.1c-1.7,2.4-3.4,4.9-5.1,7.3
	C8.3,19.4,8,19.7,7.7,20H7.3c-0.3-0.3-0.6-0.5-0.9-0.9c-1.7-2.5-3.5-4.9-5.2-7.4C-1.8,7.3,0.8,1.1,6.2,0.2C6.5,0.1,6.8,0.1,7.1,0
	H7.9z M14.3,7.4c0-0.2,0-0.5,0-0.8c-0.6-4-4.3-6.4-8-5.7C2.4,1.6-0.1,5.5,1,9.3c0.3,1.1,0.9,1.9,1.5,2.8c1.6,2.2,3.1,4.5,4.7,6.8
	c0.3,0.4,0.3,0.4,0.6,0c1.8-2.5,3.5-5,5.3-7.5C13.9,10.2,14.3,8.9,14.3,7.4"/>
<path class="st0" d="M3.2,7.5c0-2.3,1.8-4.1,4.2-4.1c2.3,0,4.2,1.8,4.2,4.2c0,2.3-1.9,4.1-4.2,4.1C5.1,11.7,3.2,9.8,3.2,7.5
	 M10.8,7.5c0-1.9-1.5-3.4-3.4-3.4c-1.9,0-3.5,1.5-3.5,3.4c0,1.9,1.6,3.4,3.5,3.4C9.3,11,10.8,9.4,10.8,7.5"/>
</svg>
