<?xml version="1.0" encoding="utf-8"?>
<!-- Generator: Adobe Illustrator 19.2.1, SVG Export Plug-In . SVG Version: 6.00 Build 0)  -->
<svg version="1.1" id="Layer_1" xmlns="http://www.w3.org/2000/svg" xmlns:xlink="http://www.w3.org/1999/xlink" x="0px" y="0px"
	 viewBox="0 0 164 164" style="enable-background:new 0 0 164 164;" xml:space="preserve">
<style type="text/css">
	.st0{fill:#AAC9D6;}
</style>
<g>
	<g>
		<path class="st0" d="M71.6,96.5c-1.2,0.1-2.1,0.1-3.2,0.2c0,4.2,0,8.2,0,12.8c-4.1-2.1-7.3-4.5-9.8-7.7c-0.6-0.8-0.5-2.2-0.5-3.4
			c0.1-10.9,7.8-18.7,18.6-18.7c5,0,10,0,14.9,0c10.6,0.1,18.5,8.3,18.3,18.8c0,0.8-0.1,1.8-0.6,2.3c-2.9,2.8-5.8,5.5-8.8,8.2
			c-0.3-0.2-0.5-0.4-0.8-0.5c0-3.8,0-7.7,0-11.7c-1.1-0.1-2-0.2-3.3-0.3c0,3.9-0.1,7.7,0.1,11.5c0.1,2.1-0.7,2.9-2.7,3.5
			c-6.8,2.1-13.5,2.1-20.3,0.2c-1.5-0.4-2.2-1.2-2.1-2.8C71.7,104.9,71.6,100.9,71.6,96.5z"/>
		<path class="st0" d="M84,50.7c6.3-0.1,11.5,5,11.6,11.3c0.1,6.4-4.9,11.6-11.2,11.7c-6.3,0.2-11.7-4.9-11.8-11.1
			C72.5,56,77.4,50.8,84,50.7z"/>
	</g>
	<path class="st0" d="M84.1,15c-37,0-66.9,30-66.9,66.9s30,66.9,66.9,66.9c37,0,66.9-30,66.9-66.9S121,15,84.1,15z M84.1,141.5
		c-32.9,0-59.6-26.7-59.6-59.6s26.7-59.6,59.6-59.6c32.9,0,59.6,26.7,59.6,59.6S117,141.5,84.1,141.5z"/>
	<rect x="80.7" class="st0" width="6.7" height="36.2"/>
	<rect x="80.7" y="127.8" class="st0" width="6.7" height="36.2"/>
	
		<rect x="142.5" y="63.8" transform="matrix(-1.836970e-016 1 -1 -1.836970e-016 227.8059 -63.9991)" class="st0" width="6.7" height="36.2"/>
	
		<rect x="14.7" y="63.8" transform="matrix(-1.836970e-016 1 -1 -1.836970e-016 100.0009 63.8059)" class="st0" width="6.7" height="36.2"/>
</g>
</svg>
