<?xml version="1.0" encoding="utf-8"?>
<!-- Generator: Adobe Illustrator 19.2.1, SVG Export Plug-In . SVG Version: 6.00 Build 0)  -->
<svg version="1.1" id="Layer_1" xmlns="http://www.w3.org/2000/svg" xmlns:xlink="http://www.w3.org/1999/xlink" x="0px" y="0px"
	 viewBox="0 0 337 225" style="enable-background:new 0 0 337 225;" xml:space="preserve">
<style type="text/css">
	.st0{fill:#666666;}
</style>
<g>
	<g>
		<g>
			<g>
				<path class="st0" d="M0,21.7c2.7-4.4,5-9.2,8.3-13.1c5.9-6.7,13.9-8.4,22.6-8.4C77,0.3,123.1,0.3,169.2,0.3
					c43.7,0,87.3,0.5,131-0.3c17.5-0.3,30.3,4.7,36.9,21.7c0,60.6,0,121.1,0,181.7c-2.7,4.4-5,9.2-8.3,13
					c-5.9,6.7-13.9,8.4-22.6,8.4c-45.8-0.1-91.7-0.1-137.5-0.1c-44.1,0-88.2-0.5-132.3,0.3c-17.4,0.3-29.7-5.1-36.2-21.6
					C0,142.8,0,82.2,0,21.7z M168.6,210.9c45,0,89.9,0,134.9,0c15,0,19.3-4.2,19.3-19c0-52.9,0-105.7,0-158.6
					c0-14.9-4.3-19.2-19.2-19.2c-90.2,0-180.3,0-270.5,0c-14.6,0-19,4.3-19,18.7c0,53.1,0,106.2,0,159.3c0,14.5,4.4,18.8,18.9,18.8
					C78.2,210.9,123.4,210.9,168.6,210.9z"/>
			</g>
		</g>
		<g>
			<path class="st0" d="M168.5,148.6c-1.5-0.8-2.9-1.5-4.1-2.3c-39-25.2-78-50.5-117-75.7c-4.1-2.6-7.1-5.9-4-10.8
				c3.3-5.2,7.6-3.7,11.9-0.9c36,23.4,72.2,46.6,108.1,70.1c3.9,2.6,6.5,2.5,10.4-0.1c35.2-23,70.6-45.8,105.9-68.7
				c1.8-1.2,3.8-3.2,5.6-3.1c2.9,0.1,6.7,0.9,8.2,2.9c1.2,1.6-0.1,5.5-0.9,8.1c-0.4,1.2-2.3,1.9-3.6,2.7c-38.6,25-77.3,50-115.9,75
				C171.6,146.9,170.1,147.7,168.5,148.6z"/>
		</g>
		<g>
			<path class="st0" d="M113.3,133.8c-1.9,2.4-3.1,4.8-5.1,6.2c-20.3,13.7-40.8,27.3-61.3,40.9c-3.8,2.5-7.7,2.7-10.4-1.3
				c-2.8-4.2-1.2-7.8,2.9-10.6c20.3-13.5,40.4-27.1,60.8-40.3c2.2-1.4,5.9-1.5,8.5-0.8C110.5,128.3,111.5,131.3,113.3,133.8z"/>
		</g>
		<g>
			<path class="st0" d="M301.7,173.8c0.1,6.6-4.2,9.9-9,8.4c-1.6-0.5-3.1-1.6-4.5-2.6c-19.2-12.8-38.3-25.6-57.5-38.3
				c-4.5-2.9-8.1-6.4-4.5-11.7c3.7-5.4,8.3-2.8,12.6,0.1c19.1,12.8,38.3,25.5,57.4,38.4C298.6,169.9,300.4,172.5,301.7,173.8z"/>
		</g>
	</g>
</g>
</svg>
