<?xml version="1.0" encoding="utf-8"?>
<!-- Generator: Adobe Illustrator 19.2.1, SVG Export Plug-In . SVG Version: 6.00 Build 0)  -->
<svg version="1.1" id="Layer_1" xmlns="http://www.w3.org/2000/svg" xmlns:xlink="http://www.w3.org/1999/xlink" x="0px" y="0px"
	 viewBox="0 0 375 375" style="enable-background:new 0 0 375 375;" xml:space="preserve">
<style type="text/css">
	.st0{fill:#666666;}
</style>
<path class="st0" d="M199.2,0c6.3,1.8,12.7,3.1,18.8,5.5c37.2,14.5,58.8,43,67.2,80.8c10.9,49.3-0.7,92.7-39.5,127.2
	c-1.9,1.7-3.3,4.8-3.4,7.3c-0.3,7.5-2.4,16.9,1.2,22c3.3,4.7,13,5.1,20,7c22.7,6.3,45.5,12.6,68.3,18.7c22.5,6.1,36.7,20.1,42,43
	c0.3,1.2,0.8,2.2,1.3,3.4c0,20,0,40,0,60c-125,0-250,0-375,0c0-20.5,0-41,0-61.5c1.2-3.4,2.2-6.9,3.5-10.2
	c6.8-17.2,18.8-28.8,36.8-33.8c28.6-7.9,57.3-15.9,86-23.5c5.1-1.4,6.5-3.6,6.9-8.9c1.1-13.6-2.8-23.3-13-33.6
	c-49.4-50-43.3-140.6,10.9-183.3c12.3-9.7,26-16.1,41.5-18.9c1.1-0.2,2.1-0.9,3.2-1.3C183.6,0,191.4,0,199.2,0z M148.3,225.3
	c0,8.8-0.4,16.6,0.1,24.2c0.3,5.3-1.7,7.1-6.5,8.4c-32.2,8.7-64.4,17.6-96.6,26.4c-15.3,4.2-26.1,13.9-28.2,29.4
	c-2,14.7-0.4,30-0.4,45.1c114,0,227.9,0,342.4,0c0-12.4,0.1-24.3,0-36.2c-0.2-19.2-11.2-33.2-29.9-38.4c-32-8.8-63.9-17.7-95.9-26.2
	c-5.2-1.4-7-3.6-6.7-9c0.5-7.4,0.1-14.9,0.1-23.3C200.1,237.3,174.6,237.2,148.3,225.3z M272.3,100.5c-25.4,6-36.7,2.1-68.8-22.9
	c-29.2,29.4-62.9,24.8-97.7,12.8c-0.4,1-0.9,1.9-1.1,2.8c-5.9,32.7-1.1,63.3,18.6,90.4c30.2,41.4,82.2,47.2,117.6,13
	C268,170.3,276.2,137.5,272.3,100.5z M202.4,45.7c2.9,5,4.8,8.4,6.8,11.7c8.3,14.1,20.5,23.5,36,28.1c5.8,1.7,12.4,1.1,18.6,0.6
	c3.6-0.3,5.4-3.2,3.3-7c-5.8-10.6-10.2-22.3-17.6-31.7c-19-24.2-44.2-36.1-75.2-30.2c-32.1,6.1-51.2,27.8-64.1,57.1
	c17.6,8.2,35.2,11.3,53.8,8.3C184.5,79.2,194.9,64.7,202.4,45.7z"/>
</svg>
