<?xml version="1.0" encoding="utf-8"?>
<!-- Generator: Adobe Illustrator 19.2.1, SVG Export Plug-In . SVG Version: 6.00 Build 0)  -->
<svg version="1.1" id="Layer_1" xmlns="http://www.w3.org/2000/svg" xmlns:xlink="http://www.w3.org/1999/xlink" x="0px" y="0px"
	 viewBox="0 0 13.3 20" style="enable-background:new 0 0 13.3 20;" xml:space="preserve">
<style type="text/css">
	.st0{fill:#C5E3E9;}
</style>
<path class="st0" d="M2,18.7c-0.6-0.6-1-1.3-1.2-2.2c-0.7-3.6-1-7.3-0.5-11c0.2-1.3,0.5-2.7,1.3-3.8C2.4,0.7,3.4,0,4.9,0
	c0.7,0,1.4,0,2.1,0c0.4,0,0.6,0.1,0.6,0.6c0,2.1,0,4.3,0,6.4c0,0.4-0.2,0.6-0.6,0.6c-0.5,0-1,0-1.4,0C4.8,7.6,4.4,8,4.4,8.7
	c0,1,0.1,2.1,0.1,3.1c0,0.6,0.4,1,1.1,1c0.4,0,0.9,0,1.3,0c0.4,0,0.5,0.2,0.5,0.5c0,2,0,4.1,0,6.1C7.5,19.8,7.3,20,7,20
	c-1,0-1.9,0-2.9-0.1C3.3,19.8,2.6,19.4,2,18.7 M6.5,0.9c-0.6,0-1.2,0-1.8,0c-0.5,0-1,0.1-1.4,0.5C2.9,1.8,2.5,2.3,2.2,2.8
	c-0.6,1-0.8,2.1-1,3.2C0.7,9.7,1,13.3,1.9,16.9c0,0.1,0.1,0.3,0.2,0.4c1,1.6,2.2,2,4.5,1.7c0-1.7,0-3.5,0.1-5.3c-0.4,0-0.7,0.1-1,0
	c-1.1,0-1.9-0.9-2-1.9c0-1-0.1-2.1-0.1-3.1c0-1.2,0.8-2.1,2-2.1c0.4,0,0.7,0,1.1,0C6.5,4.7,6.5,2.9,6.5,0.9"/>
<path class="st0" d="M11.6,5.8c2.1,2.3,2.3,6,0.4,8.3c-0.2,0.2-0.3,0.4-0.5,0.6c-0.2,0.2-0.5,0.2-0.7,0c-0.2-0.2-0.2-0.5,0-0.7
	c0.2-0.3,0.5-0.6,0.7-0.9c1.4-2.2,1.1-4.7-0.7-6.6c-0.3-0.3-0.3-0.5-0.1-0.8C11,5.4,11.2,5.4,11.6,5.8L11.6,5.8z"/>
<path class="st0" d="M9.7,7.6c1.3,1.4,1.4,3.6,0.1,5C9.4,13,9.2,13,8.9,12.8C8.7,12.6,8.7,12.3,9,12c0.8-1,1-2.2,0.3-3.3
	C9.2,8.5,9.1,8.4,8.9,8.2c-0.2-0.3-0.3-0.6,0-0.8C9.1,7.2,9.4,7.3,9.7,7.6L9.7,7.6z"/>
</svg>
