<?xml version="1.0" encoding="utf-8"?>
<!-- Generator: Adobe Illustrator 19.2.1, SVG Export Plug-In . SVG Version: 6.00 Build 0)  -->
<svg version="1.1" id="Layer_1" xmlns="http://www.w3.org/2000/svg" xmlns:xlink="http://www.w3.org/1999/xlink" x="0px" y="0px"
	 viewBox="0 0 16 16" style="enable-background:new 0 0 16 16;" xml:space="preserve">
<style type="text/css">
	.st0{fill:#AAC9D6;}
</style>
<g>
	<path class="st0" d="M9.9,0c0.3,0.2,0.3,0.4,0.3,0.7c0,4.9,0,9.7,0,14.6c0,0.3-0.1,0.5-0.3,0.7c-1.3,0-2.6,0-3.9,0
		c-0.3-0.2-0.3-0.4-0.3-0.7c0-4.9,0-9.7,0-14.6c0-0.3,0.1-0.5,0.3-0.7C7.4,0,8.6,0,9.9,0z M6.8,1c0,4.7,0,9.3,0,14
		c0.8,0,1.7,0,2.5,0c0-4.7,0-9.3,0-14C8.4,1,7.6,1,6.8,1z"/>
	<path class="st0" d="M11.8,16c-0.3-0.2-0.3-0.4-0.3-0.7c0-3.2,0-6.4,0-9.6c0-0.5,0.2-0.7,0.7-0.7c1,0,2.1,0,3.1,0
		c0.3,0,0.5,0.1,0.7,0.3c0,3.6,0,7.1,0,10.7C14.6,16,13.2,16,11.8,16z M15,15c0-3,0-6,0-9c-0.8,0-1.7,0-2.5,0c0,3,0,6,0,9
		C13.3,15,14.2,15,15,15z"/>
	<path class="st0" d="M0,8.3C0.2,8.1,0.4,8,0.7,8c1.1,0,2.1,0,3.2,0c0.4,0,0.6,0.2,0.6,0.6c0,2.2,0,4.5,0,6.7c0,0.3-0.1,0.5-0.3,0.6
		c-1.4,0-2.8,0-4.2,0C0,13.4,0,10.9,0,8.3z M3.5,15c0-2,0-4,0-6C2.6,9,1.8,9,1,9c0,2,0,4,0,6C1.8,15,2.6,15,3.5,15z"/>
</g>
</svg>
