<?xml version="1.0" encoding="utf-8"?>
<!-- Generator: Adobe Illustrator 19.2.1, SVG Export Plug-In . SVG Version: 6.00 Build 0)  -->
<svg version="1.1" id="Layer_1" xmlns="http://www.w3.org/2000/svg" xmlns:xlink="http://www.w3.org/1999/xlink" x="0px" y="0px"
	 viewBox="0 0 30 30" style="enable-background:new 0 0 30 30;" xml:space="preserve">
<style type="text/css">
	.st0{fill:#BAD7AB;}
</style>
<g>
	<g>
		<path class="st0" d="M2.7,16.5c-0.7,0-1.7,0-2.7,0c0-1,0-2,0-3c1,0,2,0,2.9,0c0.3-1.1,0.6-2.1,1-3.1c0.4-0.9,0.9-1.8,1.5-2.8
			C4.7,7,3.9,6.4,3.2,5.7c0.9-0.8,1.6-1.5,2.4-2.2c0.5,0.6,1.2,1.3,1.7,1.9c2.2-0.9,4.1-1.7,6.2-2.6c0-0.7,0-1.7,0-2.8
			c1.1,0,2,0,3,0c0,1,0,2,0,2.7c2.1,0.9,4,1.7,6.2,2.6c0.5-0.5,1.1-1.3,1.8-2c0.7,0.8,1.4,1.4,2.2,2.3c-0.7,0.6-1.5,1.2-2,1.6
			c0.9,2.2,1.7,4.2,2.6,6.2c0.7,0,1.7,0,2.8,0c0,1,0,1.9,0,3c-1,0-2,0-2.7,0c-0.9,2.1-1.7,4-2.5,6.1c0.5,0.5,1.3,1.1,2.1,1.8
			c-0.8,0.8-1.5,1.5-2.3,2.2c-0.7-0.7-1.3-1.4-1.8-2c-2.1,0.9-4.1,1.7-6.1,2.6c0,0.7,0,1.7,0,2.8c-1,0-2,0-3,0c0-1,0-2,0-2.7
			c-2.1-0.9-4-1.6-6-2.5c-0.5,0.5-1.2,1.3-1.9,2.1c-0.8-0.9-1.5-1.6-2.2-2.4c0.7-0.6,1.4-1.2,1.9-1.7C4.4,20.6,3.6,18.7,2.7,16.5z
			 M15,6c-5,0-9.1,4-9.1,9c0,5,4,9.1,9,9.1c5,0,9.1-4,9.1-9C24,10.1,20,6,15,6z"/>
		<path class="st0" d="M15,20c-2.7,0-5-2.2-5-4.9c0-2.8,2.2-5,5-5c2.7,0,5,2.3,5,5C20,17.7,17.7,20,15,20z M15,12.1
			c-1.6,0-2.9,1.4-2.9,3c0,1.6,1.4,2.9,3,2.9c1.6,0,2.9-1.3,2.9-2.9C17.9,13.5,16.6,12.1,15,12.1z"/>
	</g>
</g>
</svg>
