<?xml version="1.0" encoding="utf-8"?>
<!-- Generator: Adobe Illustrator 19.2.1, SVG Export Plug-In . SVG Version: 6.00 Build 0)  -->
<svg version="1.1" id="Layer_1" xmlns="http://www.w3.org/2000/svg" xmlns:xlink="http://www.w3.org/1999/xlink" x="0px" y="0px"
	 viewBox="0 0 17 14.7" style="enable-background:new 0 0 17 14.7;" xml:space="preserve">
<style type="text/css">
	.st0{fill:#AAC9D6;}
</style>
<path class="st0" d="M17,5.2c-0.1,0.3-0.1,0.6-0.2,0.9c-0.2,0.6-0.6,1.2-1,1.7c-2.4,2.3-4.7,4.6-7.1,6.9c0,0-0.1,0.1-0.1,0.1
	c-1.5-1.5-3-3-4.6-4.5c0.5,0,1,0,1.4,0c0.1,0,0.2,0.1,0.3,0.2c0.9,0.9,1.8,1.7,2.6,2.6c0.1,0.1,0.2,0.2,0.3,0.3
	c0.1-0.1,0.2-0.2,0.3-0.2c2-1.9,3.9-3.8,5.9-5.7c1-1,1.4-2.1,1.1-3.5c-0.4-1.4-1.4-2.2-2.7-2.6c-1.7-0.4-3.5,0.2-4.5,2.1
	C8.4,3.3,8.4,3.2,8.3,3c-0.8-1.2-2-1.9-3.4-1.9c-1.5,0-2.6,0.7-3.3,2C0.9,4.5,1.1,6,2.1,7C2.9,7.9,2.9,7.9,4.2,8
	c0.7,0,1.2-0.2,1.6-0.7c0.4-0.5,0.9-1,1.3-1.6c0.5,0.6,1.1,1.2,1.6,1.8C8.9,7.8,9.2,8,9.7,8c0.3,0,0.7,0,1,0c0,0.4,0,0.7,0,1.1
	c-0.4,0-0.7,0-1.1,0C8.8,9.2,8.2,8.9,7.8,8.2C7.6,7.9,7.3,7.7,7.1,7.4c-0.4,0.5-0.8,1-1.3,1.5C5.7,9,5.6,9.1,5.4,9.1
	c-0.8,0-1.7,0-2.5,0C2.8,9.1,2.6,9,2.5,8.9C2.1,8.5,1.7,8.2,1.3,7.8C0.6,7.1,0.2,6.2,0.1,5.2C0,5.2,0,5.1,0,5.1c0-0.3,0-0.6,0-0.9
	c0,0,0-0.1,0.1-0.1c0.3-1.9,1.4-3.1,3.1-3.7C4.9-0.3,6.6,0,8.1,1.2c0.2,0.1,0.3,0.3,0.4,0.4c1.2-1.1,1.9-1.5,3.3-1.6
	c2.2-0.3,4.4,1.2,5,3.3C16.9,3.6,16.9,3.8,17,4C17,4.4,17,4.8,17,5.2z"/>
</svg>
