<?xml version="1.0" encoding="utf-8"?>
<!-- Generator: Adobe Illustrator 19.2.1, SVG Export Plug-In . SVG Version: 6.00 Build 0)  -->
<svg version="1.1" id="Layer_1" xmlns="http://www.w3.org/2000/svg" xmlns:xlink="http://www.w3.org/1999/xlink" x="0px" y="0px"
	 viewBox="0 0 27.8 74.4" style="enable-background:new 0 0 27.8 74.4;" xml:space="preserve">
<style type="text/css">
	.st0{fill:#C3D6DC;}
</style>
<path class="st0" d="M18.2,74.4H17c-0.2-0.3-0.5-0.5-0.6-0.8c-0.6-1.8-1-3.7-0.6-5.6c0.5-2.4,0.4-4.8-0.1-7.2
	c-0.2-1-0.4-2.1-0.3-3.1c0.3-3.4-0.2-6.7-0.4-10c-0.2-2.7-0.4-5.5-0.7-8.2c0-0.2,0-0.4-0.1-0.6c-0.3,0-0.5,0-0.8,0
	c0,0.3,0,0.6,0,0.9c-0.1,1.4-0.1,2.8-0.2,4.2c-0.5,4.7-1.2,9.5-0.8,14.2c0,0.3,0,0.6-0.1,0.9c-0.2,1.4-0.6,2.8-0.6,4.2
	c0,2.1,0.2,4.2,0.4,6.3c0.1,1.4-0.4,2.7-0.7,4.1c-0.1,0.2-0.3,0.4-0.5,0.7H9.8C9.4,74.2,9,74.1,8.7,74c-0.7-0.4-0.8-0.9-0.4-1.5
	c0.4-0.5,0.8-1,1-1.6c0.2-0.5,0.1-1.2,0.2-1.7c0-0.4-0.1-0.8,0-1.1c0.2-1.8-0.2-3.5-0.6-5.2c-0.7-2.9-1-5.8-0.6-8.8
	c0.4-2.4-0.3-4.7-0.8-7c-0.6-2.9-1.1-5.8-1.1-8.7c0-2.1,0.4-4.2,1.2-6.1c0.1-0.3,0.3-0.7,0.4-1c0.9-1.8,1.1-3.6,0.5-5.5
	c-0.3-0.9-0.4-1.8-0.6-3c-0.2,0.9-0.3,1.5-0.4,2.2c-0.2,1.4-0.4,2.7-0.7,4.1c-0.4,1.7-0.9,3.4-1.5,5c-0.5,1.3-0.8,2.6-0.8,4
	c0,1.7-0.6,3.3-1.5,4.7c-0.2,0.3-0.8,0.5-1.3,0.5c0,0-0.1,0-0.1,0c-0.6,0-0.7-0.6-0.6-1.2c0.1-1,0.2-2,0.3-3
	c-0.2,0.2-0.4,0.4-0.6,0.5c-0.2,0.1-0.5,0.1-0.9,0.1c0.8-1.1,1.6-2.1,2.2-3.2c0.4-0.7,0.6-1.6,0.7-2.5c0.4-2.4,0.8-4.9,1.2-7.3
	c0.4-2.1,0.9-4.2,1.2-6.3c0.2-1.4,0.2-2.9,0.4-4.3c0.1-1.1,0.8-1.8,1.8-2.2c1-0.4,1.9-0.9,2.8-1.3c1.3-0.5,1.6-1.5,1.6-2.8
	c-0.3,0.1-0.6,0.2-1,0.3C11,9.7,11,9.4,11.1,9c-0.3,0.1-0.5,0.2-0.8,0.4c0-0.3,0.1-0.5,0.1-0.7c-0.3,0.1-0.5,0.1-1,0.2
	C9.6,8.5,9.8,8.4,10,8.1C9.7,8,9.4,7.9,9.1,7.8C9.3,7.5,9.4,7.3,9.6,7C9.4,7,9.2,7.1,9,7.1c0-0.2,0.1-0.4,0.1-0.6
	C9,6.3,8.8,6.2,8.6,6.1C9,5.9,9.2,5.8,9.7,5.6C9.4,5.5,9.2,5.4,9,5.4l0.2-0.2l0.1-0.1c0.3-0.3,0.6-0.6,0.9-0.9
	c0.1-0.2,0.2-0.5,0.3-0.7c0.2-1.7,1.1-2.9,2.8-3.4h1.7c1.7,0.5,2.6,1.7,2.8,3.5C17.8,4.2,18,4.9,19,5.2c-0.3,0.2-0.4,0.3-0.7,0.4
	c0.4,0.2,0.6,0.3,1,0.5c-0.1,0.1-0.3,0.2-0.4,0.3c0,0.3,0.1,0.5,0.1,0.8c-0.2,0-0.3-0.1-0.6-0.1c0.2,0.3,0.3,0.5,0.4,0.7
	C18.6,8,18.3,8.1,18,8.3c0.1,0.2,0.3,0.3,0.5,0.6c-0.4-0.1-0.6-0.1-0.9-0.2c0,0.2,0,0.4,0,0.7c-0.3-0.1-0.6-0.3-0.9-0.4
	c0.1,0.3,0.1,0.7,0.2,1c-0.3-0.1-0.6-0.1-0.9-0.2c0,1.2,0.3,2.2,1.6,2.7c1,0.4,1.9,0.9,2.8,1.3c1.5,0.6,1.8,1.8,1.9,3.2
	c0.2,2.4,0.4,4.9,0.8,7.3c0.3,1.9,0.9,3.8,1.2,5.7c0.3,1.8,0.6,3.6,0.9,5.4c0.1,0.6,0.6,1.1,0.9,1.6c0.1,0.2,0.3,0.4,0.5,0.6
	c0.4,0.6,0.7,1.2,1.1,1.9c-0.1,0-0.2,0.1-0.3,0.1c-0.4,0-0.7-0.3-1-0.7c0.1,1.1,0.2,2.1,0.3,3.1c0.1,0.6,0,1.1-0.6,1.2
	c-0.1,0-0.2,0-0.3,0c-0.4,0-0.8-0.2-1.1-0.6c-0.8-1.5-1.4-3-1.4-4.7c0-1.3-0.2-2.5-0.7-3.7c-1.2-2.5-1.5-5.1-1.9-7.8
	c-0.2-1.2-0.5-2.4-0.7-3.8c-0.3,1.7-0.7,3.3-0.9,4.9c-0.1,0.8,0.2,1.7,0.4,2.5c0.5,1.5,1.2,2.9,1.6,4.4c0.7,2.4,0.6,4.9,0.2,7.3
	c-0.4,3-1.1,5.9-1.5,8.9c-0.2,1.1-0.2,2.3-0.1,3.4c0.4,2.9,0.1,5.7-0.5,8.5c-0.4,1.9-1,3.9-0.6,5.9c0.1,0.5-0.3,1.1-0.1,1.6
	c0.2,0.7,0.6,1.4,1,2.1c0.7,1.1,0.6,1.7-0.7,2.1C18.6,74.2,18.4,74.3,18.2,74.4"/>
</svg>
